<svg width="150" height="46" viewBox="0 0 150 46" fill="none" xmlns="http://www.w3.org/2000/svg" role="img" aria-labelledby="title desc">
  <title id="title">Zust</title>
  <desc id="desc">Zust social network logo</desc>
  <rect x="1" y="1" width="44" height="44" rx="10" fill="#198754"/>
  <rect x="1" y="1" width="44" height="44" rx="10" stroke="#157347" stroke-width="2"/>
  <!-- Mark: RemixIcon "team-fill" (Apache-2.0), white, centered in the badge. -->
  <g transform="translate(10,10) scale(1.0833)" fill="#ffffff">
    <path d="M12 10C14.2091 10 16 8.20914 16 6 16 3.79086 14.2091 2 12 2 9.79086 2 8 3.79086 8 6 8 8.20914 9.79086 10 12 10ZM5.5 13C6.88071 13 8 11.8807 8 10.5 8 9.11929 6.88071 8 5.5 8 4.11929 8 3 9.11929 3 10.5 3 11.8807 4.11929 13 5.5 13ZM21 10.5C21 11.8807 19.8807 13 18.5 13 17.1193 13 16 11.8807 16 10.5 16 9.11929 17.1193 8 18.5 8 19.8807 8 21 9.11929 21 10.5ZM12 11C14.7614 11 17 13.2386 17 16V22H7V16C7 13.2386 9.23858 11 12 11ZM5 15.9999C5 15.307 5.10067 14.6376 5.28818 14.0056L5.11864 14.0204C3.36503 14.2104 2 15.6958 2 17.4999V21.9999H5V15.9999ZM22 21.9999V17.4999C22 15.6378 20.5459 14.1153 18.7118 14.0056 18.8993 14.6376 19 15.307 19 15.9999V21.9999H22Z"/>
  </g>
  <text x="56" y="31" fill="#515355" font-family="Montserrat, Arial, sans-serif" font-size="28" font-weight="800" letter-spacing="0">Zust</text>
</svg>
