<svg width="150" height="46" viewBox="0 0 150 46" fill="none" xmlns="http://www.w3.org/2000/svg" role="img" aria-labelledby="title desc">
  <title id="title">Zust</title>
  <desc id="desc">Zust social network logo</desc>
  <rect x="1" y="1" width="44" height="44" rx="10" fill="#198754"/>
  <rect x="1" y="1" width="44" height="44" rx="10" stroke="#157347" stroke-width="2"/>
  <circle cx="18" cy="18" r="5" fill="#ffffff"/>
  <circle cx="30" cy="17" r="4.5" fill="#ffffff" opacity=".9"/>
  <path d="M10.8 34.2c1.4-7.1 12.9-7.1 14.3 0 .2 1-.6 1.8-1.6 1.8H12.4c-1 0-1.8-.8-1.6-1.8Z" fill="#ffffff"/>
  <path d="M25.1 34.8c.5-4.6 7.9-5.3 9.4-1 .3.9-.4 1.8-1.3 1.8h-7c-.7 0-1.2-.4-1.1-.8Z" fill="#ffffff" opacity=".9"/>
  <text x="56" y="31" fill="#515355" font-family="Montserrat, Arial, sans-serif" font-size="28" font-weight="800" letter-spacing="0">Zust</text>
</svg>
